<?xml version="1.0" encoding="utf-8"?>
<!-- Generator: Adobe Illustrator 19.2.1, SVG Export Plug-In . SVG Version: 6.00 Build 0)  -->
<svg version="1.1" id="Search" xmlns="http://www.w3.org/2000/svg" xmlns:xlink="http://www.w3.org/1999/xlink" x="0px" y="0px"
	 viewBox="0 0 88.5 24" style="enable-background:new 0 0 88.5 24;" xml:space="preserve">
<style type="text/css">
	.st0{fill:#666666;}
</style>
<title>charm-menu-search</title>
<path class="st0" d="M24.1,21.4l-7.5-7.5c2.7-4.2,1.4-9.8-2.8-12.4C12.4,0.5,10.7,0,9,0C4.1,0,0,4,0,8.9c0,5,4.1,9,9,9
	c1.7,0,3.5-0.5,4.9-1.5l7.5,7.5L24.1,21.4z M9,14.2c-2.9,0-5.3-2.3-5.3-5.2S6.1,3.7,9,3.7s5.3,2.3,5.3,5.2c0,1.4-0.6,2.7-1.5,3.7
	C11.7,13.7,10.4,14.2,9,14.2z"/>
<path class="st0" d="M39.1,13.6h2.3c0,1,0.8,1.8,1.8,1.8c0.1,0,0.2,0,0.3,0c0.8,0.1,1.6-0.4,1.8-1.3c0-0.1,0-0.1,0-0.2
	c0-0.9-0.5-1.1-2-1.4c-2.7-0.4-3.9-1.2-3.9-3.2c0-1.8,1.5-3.2,3.9-3.2s3.8,1.1,4,3.2h-2.2c-0.1-0.9-0.9-1.5-1.7-1.4c0,0-0.1,0-0.1,0
	c-1.1,0-1.6,0.5-1.6,1.2s0.3,1.1,2,1.4c2.6,0.3,3.9,1,3.9,3.2c0,1.9-1.6,3.4-4.1,3.4C40.6,17.2,39.2,15.8,39.1,13.6z"/>
<path class="st0" d="M48.7,13.2V13c-0.1-2.1,1.5-4,3.7-4.1c0.1,0,0.2,0,0.3,0c2-0.1,3.7,1.4,3.8,3.4c0,0.2,0,0.4,0,0.6v0.6h-5.6
	c-0.1,1,0.7,1.9,1.7,2c0.1,0,0.2,0,0.3,0c0.7,0.1,1.5-0.4,1.6-1.1h2c-0.2,1.7-1.6,2.6-3.8,2.6c-2.1,0.2-3.9-1.4-4.1-3.5
	C48.7,13.5,48.7,13.3,48.7,13.2z M54.4,12.2c0.1-0.9-0.6-1.7-1.4-1.7c-0.1,0-0.2,0-0.3,0c-1,0-1.8,0.8-1.8,1.8H54.4z"/>
<path class="st0" d="M57.5,14.8c0-1.8,1.7-2.5,4.1-2.5h0.9v-0.4c0-0.9-0.3-1.4-1.3-1.4c-0.6-0.1-1.2,0.4-1.3,1c0,0,0,0.1,0,0.1h-2
	c0.2-1.8,1.6-2.7,3.5-2.7s3.3,0.8,3.3,2.9V17h-2.1v-0.9c-0.5,0.8-1.4,1.2-2.4,1.1C58.8,17.2,57.5,16.5,57.5,14.8z M62.5,14.2v-0.7
	h-0.9c-1.3,0-2,0.3-2,1.1c0,0.5,0.4,1,0.9,1c0.1,0,0.2,0,0.2,0c0.8,0.1,1.6-0.4,1.7-1.3C62.5,14.3,62.5,14.3,62.5,14.2L62.5,14.2z"
	/>
<path class="st0" d="M66.5,9.1h2.2v1.5c0.4-1,1.4-1.7,2.5-1.6v2c-1.6,0-2.5,0.5-2.5,2V17h-2.2V9.1z"/>
<path class="st0" d="M72,13.2V13c-0.1-2.2,1.5-4,3.7-4.1c0.1,0,0.3,0,0.4,0c1.8,0,3.5,0.8,3.7,3h-2.1c-0.1-0.8-0.7-1.4-1.5-1.3
	c0,0,0,0-0.1,0c-1.1,0-1.9,0.8-1.9,2.3v0.2c0,1.6,0.7,2.4,1.9,2.4c0.9,0.1,1.6-0.6,1.7-1.5c0,0,0,0,0,0h2c-0.1,1.9-1.5,3.2-3.8,3.2
	c-2.1,0.2-3.9-1.3-4.1-3.4C72,13.5,72,13.4,72,13.2z"/>
<path class="st0" d="M81.2,5.6h2.2v4.8c0.5-0.9,1.5-1.5,2.6-1.5c1.5,0,2.6,0.9,2.6,3v5h-2.2v-4.6c0-1.1-0.4-1.6-1.4-1.6
	c-0.9,0-1.6,0.6-1.6,1.5c0,0.1,0,0.2,0,0.3V17h-2.2V5.6z"/>
</svg>
