<?xml version="1.0" encoding="utf-8"?>
<!-- Generator: Adobe Illustrator 19.2.1, SVG Export Plug-In . SVG Version: 6.00 Build 0)  -->
<svg version="1.1" id="Menu" xmlns="http://www.w3.org/2000/svg" xmlns:xlink="http://www.w3.org/1999/xlink" x="0px" y="0px"
	 viewBox="0 0 83.7 24" style="enable-background:new 0 0 83.7 24;" xml:space="preserve">
<style type="text/css">
	.st0{fill:#666666;}
</style>
<title>charm-menu</title>
<rect class="st0" width="30" height="3"/>
<rect y="21" class="st0" width="30" height="3"/>
<rect y="7" class="st0" width="30" height="3"/>
<rect y="14" class="st0" width="30" height="3"/>
<path class="st0" d="M45,6.3h3.2l2.5,6.7l2.5-6.7h3.2V17h-2.4V9.5l-3,7.5h-0.8l-3-7.5V17H45V6.3z"/>
<path class="st0" d="M57.9,13.2V13c-0.1-2.1,1.5-4,3.7-4.1c0.1,0,0.3,0,0.4,0c2-0.1,3.7,1.4,3.8,3.4c0,0.2,0,0.4,0,0.6v0.6h-5.7
	c-0.1,1,0.7,1.9,1.7,2c0.1,0,0.2,0,0.3,0c0.7,0.1,1.5-0.4,1.6-1.1h2.1c-0.2,1.7-1.6,2.6-3.8,2.6c-2.1,0.2-3.9-1.4-4.1-3.5
	C57.9,13.5,57.9,13.3,57.9,13.2z M63.7,12.2c0.1-0.9-0.6-1.7-1.4-1.8c-0.1,0-0.2,0-0.2,0c-1,0-1.8,0.8-1.8,1.8L63.7,12.2L63.7,12.2z
	"/>
<path class="st0" d="M67.2,9.1h2.2v1.2c0.5-0.9,1.5-1.5,2.6-1.5c1.5,0,2.6,0.9,2.6,3v5h-2.2v-4.6c0-1.1-0.4-1.6-1.4-1.6
	c-0.9,0-1.6,0.6-1.6,1.5c0,0.1,0,0.2,0,0.3V17h-2.2V9.1z"/>
<path class="st0" d="M76.4,14.2V9.1h2.2v4.8c0,1.1,0.4,1.6,1.4,1.6c0.9,0,1.6-0.6,1.6-1.5c0-0.1,0-0.2,0-0.3V9.1h2.2V17h-2.2v-1.2
	c-0.5,0.9-1.5,1.5-2.5,1.4C77.5,17.2,76.4,16.3,76.4,14.2z"/>
</svg>
