<?xml version="1.0" encoding="utf-8"?>
<!-- Generator: Adobe Illustrator 23.1.1, SVG Export Plug-In . SVG Version: 6.00 Build 0)  -->
<svg version="1.1" id="Staff_students_yellow" xmlns="http://www.w3.org/2000/svg" xmlns:xlink="http://www.w3.org/1999/xlink"
	 x="0px" y="0px" width="161.1px" height="24px" viewBox="0 0 161.1 24" style="enable-background:new 0 0 161.1 24;"
	 xml:space="preserve">
<style type="text/css">
	.st0{fill:#666666;}
	.st1{display:none;}
	.st2{display:inline;fill:#FED100;}
	.st3{display:none;fill:#FED100;}
</style>
<path class="st0" d="M16,0L0,8l6,3v8l10,5l10-5v-8l3-1.5v8l3-1.5V8L16,0z M23,17.5L16,21l-7-3.5v-5l7,3.5l7-3.5V17.5z M16,13L6,8
	l10-5l10,5L16,13z"/>
<g id="Layer_2" class="st1">
	<path class="st2" d="M47,13.6h2.3c0,1,0.8,1.8,1.8,1.8c0.1,0,0.2,0,0.3,0c0.8,0.1,1.6-0.4,1.8-1.3c0-0.1,0-0.1,0-0.2
		c0-0.9-0.5-1.1-2-1.4c-2.7-0.4-3.9-1.2-3.9-3.2c0-1.8,1.5-3.2,3.9-3.2s3.8,1.1,4,3.2H53c-0.1-0.9-0.9-1.5-1.7-1.4c0,0-0.1,0-0.1,0
		c-1.1,0-1.6,0.5-1.6,1.2s0.3,1.1,2,1.4c2.6,0.3,3.9,1,3.9,3.3c0,1.9-1.6,3.4-4.1,3.4C48.5,17.2,47.2,15.8,47,13.6z"/>
	<path class="st2" d="M57.4,14.7v-4h-1V9.1h1V7.5h2.2v1.7h1.7v1.5h-1.6v3.8c-0.1,0.4,0.2,0.8,0.7,0.9c0.1,0,0.1,0,0.2,0
		c0.3,0,0.6,0,0.8-0.1v1.7c-0.4,0.1-0.9,0.2-1.3,0.2c-1.2,0.2-2.4-0.7-2.5-1.9C57.4,15,57.4,14.9,57.4,14.7z"/>
	<path class="st2" d="M62.3,14.8c0-1.8,1.7-2.5,4.1-2.5h0.9v-0.4c0-0.9-0.3-1.4-1.3-1.4c-0.6-0.1-1.2,0.4-1.3,1c0,0,0,0.1,0,0.1h-2
		c0.1-1.8,1.6-2.7,3.5-2.7s3.3,0.8,3.3,2.9V17h-2.1v-0.9c-0.5,0.8-1.4,1.2-2.4,1.1C63.5,17.2,62.3,16.5,62.3,14.8z M67.3,14.2v-0.7
		h-0.9c-1.3,0-2,0.3-2,1.1c0,0.5,0.4,1,0.9,1c0.1,0,0.2,0,0.2,0c0.8,0.1,1.6-0.4,1.7-1.3C67.3,14.3,67.3,14.3,67.3,14.2L67.3,14.2z"
		/>
	<path class="st2" d="M71.6,10.7h-1V9.1h1V8.3c-0.1-1.4,0.8-2.6,2.2-2.8c0.2,0,0.4,0,0.6,0c0.4,0,0.8,0.1,1.1,0.2v1.6
		c-0.3-0.1-0.5-0.1-0.8-0.1c-0.5-0.1-0.9,0.3-1,0.8c0,0.1,0,0.1,0,0.2v0.9h2.6V8.2c-0.1-1.4,0.9-2.6,2.2-2.7c0.2,0,0.4,0,0.6,0
		c0.4,0,0.8,0,1.1,0.2v1.6c-0.3-0.1-0.5-0.1-0.8-0.1c-0.5-0.1-0.9,0.3-1,0.8c0,0.1,0,0.1,0,0.2v1h1.7v1.5h-1.7V17h-2.2v-6.3h-2.6V17
		h-2.2C71.6,17,71.6,10.7,71.6,10.7z"/>
	<path class="st2" d="M92.8,14.8l1.8,2.2h-2.8l-0.8-1c-0.8,0.7-1.8,1.1-2.9,1.1c-2.2,0-3.6-1.2-3.6-3.1c0-1.5,0.9-2.4,2.4-3.2
		c-0.5-0.6-0.7-1.3-0.8-2c0-1.7,1.5-2.7,3.2-2.7s2.9,0.9,2.9,2.4c0,1.2-0.8,2.1-2.2,2.7l1.7,2.1l1-1.9h1.9L92.8,14.8z M90,14.6
		l-2-2.5c-0.7,0.2-1.1,0.9-1.1,1.6c-0.1,0.8,0.6,1.5,1.4,1.6c0.1,0,0.2,0,0.3,0C89.1,15.3,89.7,15.1,90,14.6z M89,10.3
		c0.7-0.2,1.3-0.8,1.3-1.6c0-0.5-0.3-1-0.8-1c0,0-0.1,0-0.1,0c-0.6,0-1,0.4-1.1,0.9c0,0.1,0,0.1,0,0.2C88.3,9.4,88.6,9.9,89,10.3z"
		/>
	<path class="st2" d="M98.7,14.5h2c0,0.6,0.5,1.1,1.2,1.1c0.1,0,0.1,0,0.2,0c0.8,0,1.2-0.3,1.2-0.9s-0.5-0.8-1.6-0.9
		c-2.1-0.3-2.9-0.9-2.9-2.4s1.5-2.5,3.1-2.5s3,0.6,3.2,2.4h-2c-0.1-0.6-0.6-1-1.2-1c0,0-0.1,0-0.1,0c-0.5-0.1-1,0.2-1.1,0.7
		c0,0,0,0.1,0,0.1c0,0.5,0.4,0.7,1.5,0.9c2,0.3,3,0.8,3,2.5c0,1.7-1.2,2.6-3.3,2.6S98.7,16.2,98.7,14.5z"/>
	<path class="st2" d="M107.1,14.7v-4h-1V9.1h1V7.5h2.2v1.7h1.7v1.5h-1.7v3.8c-0.1,0.4,0.2,0.8,0.7,0.9c0.1,0,0.1,0,0.2,0
		c0.3,0,0.6,0,0.8-0.1v1.7c-0.4,0.1-0.9,0.2-1.3,0.2c-1.2,0.2-2.4-0.7-2.5-1.9C107.1,15,107.1,14.9,107.1,14.7z"/>
	<path class="st2" d="M112.4,14.2V9.1h2.2v4.8c0,1.1,0.4,1.6,1.4,1.6c0.9,0,1.6-0.6,1.6-1.5c0-0.1,0-0.2,0-0.3V9.1h2.2V17h-2.2v-1.2
		c-0.5,0.9-1.5,1.5-2.5,1.4C113.5,17.2,112.4,16.3,112.4,14.2z"/>
	<path class="st2" d="M121.1,13.2v-0.1c0-2.6,1.5-4.1,3.4-4.1c1-0.1,2,0.5,2.5,1.4V5.6h2.2V17h-2.2v-1.3c-0.5,0.9-1.5,1.5-2.5,1.5
		C122.6,17.2,121.1,15.8,121.1,13.2z M127.1,13.1V13c0-1.6-0.7-2.3-1.9-2.3s-1.9,0.8-1.9,2.4v0.1c0,1.6,0.8,2.3,1.8,2.3
		S127.1,14.7,127.1,13.1L127.1,13.1z"/>
	<path class="st2" d="M130.7,13.2V13c-0.1-2.1,1.5-4,3.7-4.1c0.1,0,0.2,0,0.3,0c2-0.1,3.7,1.4,3.8,3.4c0,0.2,0,0.4,0,0.6v0.6h-5.7
		c-0.1,1,0.7,1.9,1.7,2c0.1,0,0.2,0,0.3,0c0.7,0.1,1.5-0.4,1.6-1.1h2.1c-0.2,1.7-1.6,2.6-3.8,2.6c-2.1,0.2-3.9-1.4-4.1-3.5
		C130.7,13.5,130.7,13.3,130.7,13.2z M136.4,12.2c0.1-0.9-0.6-1.7-1.4-1.7c-0.1,0-0.2,0-0.3,0c-1,0-1.8,0.8-1.8,1.8H136.4
		L136.4,12.2z"/>
	<path class="st2" d="M140,9.1h2.2v1.2c0.5-0.9,1.5-1.5,2.5-1.5c1.5,0,2.6,0.9,2.6,3v5h-2.2v-4.6c0-1.1-0.4-1.6-1.4-1.6
		c-0.9,0-1.6,0.6-1.6,1.5c0,0.1,0,0.2,0,0.3V17H140V9.1z"/>
	<path class="st2" d="M149.5,14.7v-4h-1V9.1h1V7.5h2.2v1.7h1.6v1.5h-1.6v3.8c-0.1,0.4,0.2,0.8,0.7,0.9c0.1,0,0.1,0,0.2,0
		c0.3,0,0.6,0,0.8-0.1v1.7c-0.4,0.1-0.9,0.2-1.3,0.2c-1.2,0.2-2.4-0.7-2.5-1.9C149.5,15.1,149.5,14.9,149.5,14.7z"/>
	<path class="st2" d="M154.4,14.5h2c0,0.6,0.5,1.1,1.2,1.1c0.1,0,0.1,0,0.2,0c0.8,0,1.2-0.3,1.2-0.9s-0.5-0.8-1.6-0.9
		c-2.1-0.3-2.9-0.9-2.9-2.4s1.5-2.5,3.1-2.5s3,0.6,3.2,2.4h-2c-0.1-0.6-0.6-1-1.2-1c0,0-0.1,0-0.1,0c-0.5-0.1-1,0.2-1.1,0.7
		c0,0,0,0.1,0,0.1c0,0.5,0.4,0.7,1.5,0.9c2,0.3,3,0.8,3,2.5c0,1.7-1.2,2.6-3.3,2.6S154.4,16.2,154.4,14.5z"/>
</g>
<g>
	<path class="st0" d="M46.8,13.6h2.3c0.1,1,0.5,1.8,2.1,1.8c1.1,0,1.8-0.6,1.8-1.4c0-0.9-0.5-1.2-2-1.4c-2.7-0.4-3.9-1.2-3.9-3.3
		c0-1.8,1.5-3.2,3.9-3.2c2.4,0,3.8,1.1,4,3.2h-2.2c-0.1-1-0.7-1.4-1.8-1.4s-1.6,0.5-1.6,1.2c0,0.8,0.3,1.1,2,1.4
		c2.6,0.3,3.9,1,3.9,3.3c0,1.9-1.6,3.4-4.1,3.4C48.3,17.2,47,15.8,46.8,13.6z"/>
	<path class="st0" d="M57.2,14.7v-4h-1V9.2h1V7.5h2.2v1.7H61v1.5h-1.6v3.8c0,0.6,0.3,0.9,0.9,0.9c0.3,0,0.6,0,0.8-0.1v1.7
		c-0.3,0.1-0.7,0.2-1.3,0.2C58.1,17.2,57.2,16.3,57.2,14.7z"/>
	<path class="st0" d="M62.5,14.2V9.2h2.2v4.8c0,1.1,0.4,1.6,1.4,1.6c0.9,0,1.6-0.6,1.6-1.7V9.2h2.2V17h-2.2v-1.2
		c-0.4,0.8-1.2,1.4-2.5,1.4C63.6,17.2,62.5,16.3,62.5,14.2z"/>
	<path class="st0" d="M71.3,13.2v-0.1c0-2.6,1.5-4.1,3.4-4.1c1.3,0,2,0.6,2.5,1.4V5.6h2.2V17h-2.2v-1.3c-0.4,0.8-1.4,1.5-2.5,1.5
		C72.8,17.2,71.3,15.8,71.3,13.2z M77.3,13.1V13c0-1.6-0.7-2.4-1.9-2.4c-1.2,0-1.9,0.8-1.9,2.4v0.1c0,1.6,0.8,2.3,1.8,2.3
		C76.5,15.5,77.3,14.7,77.3,13.1z"/>
	<path class="st0" d="M80.8,13.2v-0.1c0-2.5,1.8-4.1,4-4.1c2,0,3.8,1.2,3.8,4v0.6H83c0.1,1.3,0.8,2.1,2,2.1c1,0,1.5-0.4,1.6-1.1h2.1
		c-0.3,1.7-1.6,2.6-3.7,2.6C82.5,17.2,80.8,15.7,80.8,13.2z M86.6,12.2c-0.1-1.2-0.7-1.8-1.7-1.8c-1,0-1.6,0.6-1.8,1.8H86.6z"/>
	<path class="st0" d="M90.1,9.2h2.2v1.2C92.7,9.6,93.5,9,94.8,9c1.5,0,2.6,0.9,2.6,3v5h-2.2v-4.7c0-1.1-0.4-1.6-1.4-1.6
		c-0.9,0-1.6,0.6-1.6,1.7V17h-2.2V9.2z"/>
	<path class="st0" d="M99.7,14.7v-4h-1V9.2h1V7.5h2.2v1.7h1.6v1.5h-1.6v3.8c0,0.6,0.3,0.9,0.9,0.9c0.3,0,0.6,0,0.8-0.1v1.7
		c-0.3,0.1-0.7,0.2-1.3,0.2C100.5,17.2,99.7,16.3,99.7,14.7z"/>
	<path class="st0" d="M104.5,14.5h2c0.1,0.7,0.4,1.1,1.4,1.1c0.8,0,1.2-0.3,1.2-0.9s-0.5-0.8-1.6-0.9c-2.1-0.3-2.9-0.9-2.9-2.4
		c0-1.6,1.5-2.4,3.1-2.4c1.7,0,3,0.6,3.2,2.4h-2c-0.1-0.6-0.5-0.9-1.2-0.9c-0.7,0-1.1,0.3-1.1,0.8c0,0.5,0.4,0.7,1.5,0.9
		c2,0.3,3,0.8,3,2.5c0,1.7-1.2,2.6-3.3,2.6C105.8,17.2,104.6,16.2,104.5,14.5z"/>
	<path class="st0" d="M123.9,14.8l1.8,2.2h-2.8l-0.8-1c-0.7,0.6-1.5,1.1-2.9,1.1c-2.2,0-3.6-1.2-3.6-3.1c0-1.5,0.9-2.4,2.4-3.2
		c-0.5-0.7-0.8-1.4-0.8-2c0-1.7,1.5-2.7,3.2-2.7c1.6,0,2.9,0.9,2.9,2.4c0,1.2-0.8,2.1-2.2,2.7l1.7,2.1l1-1.9h1.9L123.9,14.8z
		 M121,14.6l-2-2.5c-0.6,0.3-1.1,0.8-1.1,1.6c0,1,0.6,1.6,1.7,1.6C120.1,15.4,120.6,15.1,121,14.6z M120,10.3
		c0.9-0.4,1.3-0.9,1.3-1.6c0-0.6-0.4-1-0.9-1c-0.6,0-1.1,0.4-1.1,1.1C119.3,9.3,119.6,9.8,120,10.3z"/>
	<path class="st0" d="M129.7,14.5h2c0.1,0.7,0.4,1.1,1.4,1.1c0.8,0,1.2-0.3,1.2-0.9s-0.5-0.8-1.6-0.9c-2.1-0.3-2.9-0.9-2.9-2.4
		c0-1.6,1.5-2.4,3.1-2.4c1.7,0,3,0.6,3.2,2.4h-2c-0.1-0.6-0.5-0.9-1.2-0.9c-0.7,0-1.1,0.3-1.1,0.8c0,0.5,0.4,0.7,1.5,0.9
		c2,0.3,3,0.8,3,2.5c0,1.7-1.2,2.6-3.3,2.6C131,17.2,129.8,16.2,129.7,14.5z"/>
	<path class="st0" d="M138.1,14.7v-4h-1V9.2h1V7.5h2.2v1.7h1.6v1.5h-1.6v3.8c0,0.6,0.3,0.9,0.9,0.9c0.3,0,0.6,0,0.8-0.1v1.7
		c-0.3,0.1-0.7,0.2-1.3,0.2C139,17.2,138.1,16.3,138.1,14.7z"/>
	<path class="st0" d="M143,14.8c0-1.8,1.7-2.5,4.1-2.5h0.9V12c0-0.9-0.3-1.4-1.3-1.4c-0.9,0-1.2,0.4-1.3,1.1h-2.1
		c0.1-1.9,1.6-2.7,3.5-2.7s3.3,0.8,3.3,2.9V17H148v-0.9c-0.4,0.6-1.1,1.1-2.4,1.1C144.2,17.2,143,16.5,143,14.8z M148,14.3v-0.7
		h-0.8c-1.3,0-2,0.3-2,1.1c0,0.6,0.3,0.9,1.1,0.9C147.2,15.7,148,15.1,148,14.3z"/>
	<path class="st0" d="M152.3,10.7h-1V9.2h1V8.3c0-1.8,1-2.7,2.8-2.7c0.5,0,0.8,0.1,1.1,0.2v1.6c-0.2-0.1-0.5-0.1-0.8-0.1
		c-0.7,0-1,0.4-1,1v0.9h2.6V8.3c0-1.8,1.1-2.7,2.8-2.7c0.5,0,0.8,0,1.1,0.2v1.6c-0.2-0.1-0.5-0.1-0.8-0.1c-0.7,0-1,0.4-1,1v1h1.7
		v1.5h-1.7V17h-2.2v-6.3h-2.6V17h-2.2V10.7z"/>
</g>
<path class="st3" d="M16,0L0,8l6,3v8l10,5l10-5v-8l3-1.5v8l3-1.5V8L16,0z M23,17.5L16,21l-7-3.5v-5l7,3.5l7-3.5V17.5z M16,13L6,8
	l10-5l10,5L16,13z"/>
<path class="st3" d="M47,13.6h2.3c0,1,0.8,1.8,1.8,1.8c0.1,0,0.2,0,0.3,0c0.8,0.1,1.6-0.4,1.8-1.3c0-0.1,0-0.1,0-0.2
	c0-0.9-0.5-1.1-2-1.4c-2.7-0.4-3.9-1.2-3.9-3.2c0-1.8,1.5-3.2,3.9-3.2s3.8,1.1,4,3.2H53c-0.1-0.9-0.9-1.5-1.7-1.4c0,0-0.1,0-0.1,0
	c-1.1,0-1.6,0.5-1.6,1.2s0.3,1.1,2,1.4c2.6,0.3,3.9,1,3.9,3.3c0,1.9-1.6,3.4-4.1,3.4C48.5,17.2,47.2,15.8,47,13.6z"/>
</svg>
