<?xml version="1.0" encoding="utf-8"?>
<!-- Generator: Adobe Illustrator 22.1.0, SVG Export Plug-In . SVG Version: 6.00 Build 0)  -->
<svg version="1.1" id="Layer_1" xmlns="http://www.w3.org/2000/svg" xmlns:xlink="http://www.w3.org/1999/xlink" x="0px" y="0px"
	 width="45px" height="50px" viewBox="0 0 45 50" style="enable-background:new 0 0 45 50;" xml:space="preserve">
<style type="text/css">
	.st0{fill:#666666;}
	.st1{fill:#FED100;}
</style>
<g id="Layer_21">
	<path class="st0" d="M17.5,35C7.8,35,0,27.1,0,17.5C0,9,6.7,0,17.5,0C27.1,0,35,7.8,35,17.5S27.1,35,17.5,35z M17.5,4
		C8.2,4,4,11.9,4,17.5C4,24.9,10,31,17.5,31S31,24.9,31,17.5S24.9,4,17.5,4z"/>
	<rect x="33.2" y="27" transform="matrix(0.7445 -0.6676 0.6676 0.7445 -17.3182 33.5766)" class="st0" width="4" height="24.8"/>
	<circle class="st1" cx="12.4" cy="17.4" r="2.5"/>
	<circle class="st1" cx="22.4" cy="17.4" r="2.5"/>
	<circle class="st1" cx="42.4" cy="17.4" r="2.5"/>
</g>
</svg>
